<svg width="15" height="21" viewBox="0 0 15 21" fill="none" xmlns="http://www.w3.org/2000/svg">
<path fill-rule="evenodd" clip-rule="evenodd" d="M4.48604 16.7997C3.68398 16.7997 3.03503 17.7447 3.03503 18.8997C3.03503 20.0546 3.68398 20.9996 4.48604 20.9996C5.2881 20.9996 5.94434 20.0546 5.94434 18.8997C5.94434 17.7447 5.2881 16.7997 4.48604 16.7997ZM0.111084 1.04998C0.111084 1.62747 0.439203 2.09996 0.840238 2.09996H1.56939L4.19435 10.0693L3.20999 12.6313C2.67771 14.0383 3.3777 15.7497 4.48601 15.7497H12.5067C12.9077 15.7497 13.2359 15.2772 13.2359 14.6997C13.2359 14.1223 12.9077 13.6498 12.5067 13.6498H4.48601L5.28808 11.5498H10.7203C11.2671 11.5498 11.7484 11.1193 11.9963 10.4683L14.6067 3.65394C14.8765 2.96095 14.5265 2.09996 13.9723 2.09996H3.18082L2.69229 0.598489C2.57563 0.230996 2.31313 0 2.03605 0H0.840238C0.439203 0 0.111084 0.472492 0.111084 1.04998ZM11.7776 16.7997C10.9755 16.7997 10.3265 17.7447 10.3265 18.8997C10.3265 20.0546 10.9755 20.9996 11.7776 20.9996C12.5797 20.9996 13.2359 20.0546 13.2359 18.8997C13.2359 17.7447 12.5797 16.7997 11.7776 16.7997Z" fill="#8B96A5"/>
</svg>
